<svg xmlns="http://www.w3.org/2000/svg" width="64" height="40" viewBox="0 0 64 40" fill="none">
  <rect width="64" height="40" rx="6" fill="#1A1F71"/>
  <path fill="#fff" d="M25.9 26.7h-3.7l2.3-13.4h3.7l-2.3 13.4Zm16.9-13.1c-.7-.3-1.8-.6-3.2-.6-3.5 0-5.9 1.8-5.9 4.3 0 1.9 1.7 3 3 3.6 1.3.6 1.7 1 1.7 1.6 0 .8-1 .1-2.1.1-1 0-2.3-.2-3.1-.5l-.4 2.8c.8.3 2.2.6 3.7.6 3.7 0 6.1-1.7 6.1-4.4 0-1.5-.9-2.7-3-3.6-1.2-.6-1.9-.9-1.9-1.5 0-.5.6-1 1.9-1 1 0 2 .2 2.6.5l.5-2.9Zm9.5.3c-.7 0-1.4.1-1.9.3-.9.3-1.6.9-2.1 1.6l-.2-1.7h-3.3l-1.7 10.6h3.7l.9-5.6c.2-1.2 1.1-2 2.1-2 .5 0 .9.1 1.2.2l.7-3.4c-.3-.1-.7-.2-1.4-.2Zm-28.7-.3-3.6 13.4h-3.6l3.6-13.4h3.6Zm-9.6 0L9.5 26.7H5.7L3.8 16.2c0-.3-.2-.6-.6-.8-.6-.3-1.6-.6-2.6-.8l.1-.5h4.4c.6 0 1.1.4 1.2.9l1 5.5 2.5-6.9h3.7Z"/>
</svg>

